<?xml version="1.0" encoding="utf-8"?>
<!-- Generator: Adobe Illustrator 16.0.0, SVG Export Plug-In . SVG Version: 6.00 Build 0)  -->
<!DOCTYPE svg PUBLIC "-//W3C//DTD SVG 1.1//EN" "http://www.w3.org/Graphics/SVG/1.1/DTD/svg11.dtd">
<svg version="1.1" xmlns="http://www.w3.org/2000/svg" xmlns:xlink="http://www.w3.org/1999/xlink" x="0px" y="0px" width="150px"
	 height="40px" viewBox="0 0 150 40" enable-background="new 0 0 150 40" xml:space="preserve">
<g id="background" display="none">
	<rect x="-29.273" y="-39.849" display="inline" fill="#D6D5D6" width="206.035" height="121.783"/>
</g>
<g id="Layer_1">
	<g>
		<polygon fill-rule="evenodd" clip-rule="evenodd" fill="#FFFFFF" points="7.365,12.626 15.13,12.626 18.529,12.626 18.529,16.158 
			7.365,16.158 7.365,22.105 20.119,22.105 20.119,25.634 3.484,25.634 3.484,12.626 		"/>
		<polygon fill-rule="evenodd" clip-rule="evenodd" fill="#FFFFFF" points="87.484,12.626 96.066,12.626 98.646,12.626 
			98.646,16.158 87.484,16.158 87.484,22.105 100.238,22.105 100.238,25.634 83.604,25.634 83.604,12.626 		"/>
		<polygon fill-rule="evenodd" clip-rule="evenodd" fill="#FFFFFF" points="83.604,3.419 100.078,3.419 100.078,7.712 96.066,7.712 
			87.484,7.712 83.604,7.712 		"/>
		<polygon fill-rule="evenodd" clip-rule="evenodd" fill="#FFFFFF" points="3.484,3.419 19.959,3.419 19.959,7.712 15.129,7.712 
			7.365,7.712 3.484,7.712 		"/>
		<polygon fill-rule="evenodd" clip-rule="evenodd" fill="#FFFFFF" points="22.887,3.419 27.212,3.419 33.922,20.53 40.602,3.419 
			44.832,3.419 35.576,25.841 32.141,25.841 		"/>
		<rect x="48.871" y="3.419" fill-rule="evenodd" clip-rule="evenodd" fill="#FFFFFF" width="3.88" height="22.263"/>
		<path fill-rule="evenodd" clip-rule="evenodd" fill="#FFFFFF" d="M67,22.152c1.166,0,2.227-0.186,3.182-0.557
			c0.953-0.377,1.764-0.896,2.433-1.569c0.668-0.667,1.187-1.469,1.558-2.396c0.372-0.922,0.557-1.929,0.557-3.015V14.55
			c0-1.086-0.185-2.099-0.557-3.031c-0.371-0.939-0.89-1.744-1.558-2.414c-0.669-0.67-1.479-1.197-2.433-1.584
			C69.227,7.14,68.166,6.95,67,6.95h-4.389v15.202H67z M58.73,3.419h8.301c1.74,0,3.334,0.281,4.787,0.841
			c1.453,0.562,2.703,1.342,3.754,2.339c1.049,0.996,1.861,2.168,2.434,3.515s0.857,2.804,0.857,4.374v0.062
			c0,1.569-0.285,3.032-0.857,4.389s-1.385,2.535-2.434,3.531c-1.051,0.996-2.301,1.781-3.754,2.354s-3.047,0.858-4.787,0.858H58.73
			V3.419z"/>
		<polygon fill-rule="evenodd" clip-rule="evenodd" fill="#FFFFFF" points="104.914,3.419 108.535,3.419 120.434,18.812 
			120.434,3.419 124.314,3.419 124.314,25.682 121.044,25.682 108.794,9.843 108.794,25.682 104.914,25.682 		"/>
		<polygon fill-rule="evenodd" clip-rule="evenodd" fill="#FFFFFF" points="135.51,7.712 128.449,7.712 128.449,3.419 
			146.516,3.419 146.516,7.712 139.455,7.712 139.455,25.682 135.51,25.682 		"/>
		<path fill-rule="evenodd" clip-rule="evenodd" fill="#FFFFFF" d="M36.261,36.581c-0.455,0-0.892-0.079-1.31-0.233
			c-0.414-0.154-0.8-0.393-1.154-0.713l0.623-0.743c0.289,0.249,0.578,0.438,0.871,0.572c0.292,0.13,0.623,0.196,0.996,0.196
			c0.32,0,0.574-0.067,0.764-0.203c0.188-0.135,0.281-0.314,0.281-0.539V34.9c0-0.107-0.018-0.202-0.055-0.283
			c-0.035-0.081-0.104-0.158-0.201-0.231c-0.1-0.073-0.236-0.139-0.407-0.202c-0.173-0.061-0.397-0.124-0.672-0.187
			c-0.317-0.073-0.597-0.156-0.843-0.248c-0.244-0.093-0.453-0.206-0.617-0.339c-0.166-0.131-0.295-0.293-0.383-0.484
			c-0.086-0.191-0.129-0.422-0.129-0.691v-0.018c0-0.253,0.049-0.485,0.15-0.697c0.101-0.209,0.238-0.391,0.414-0.54
			c0.176-0.147,0.387-0.265,0.635-0.349c0.246-0.086,0.516-0.127,0.808-0.127c0.435,0,0.823,0.062,1.171,0.19
			c0.346,0.126,0.67,0.311,0.973,0.553l-0.557,0.784c-0.271-0.197-0.537-0.348-0.801-0.451c-0.266-0.104-0.531-0.156-0.803-0.156
			c-0.303,0-0.539,0.067-0.708,0.201c-0.169,0.136-0.253,0.302-0.253,0.499v0.017c0,0.113,0.02,0.213,0.059,0.299
			c0.039,0.088,0.111,0.167,0.215,0.237c0.106,0.07,0.25,0.137,0.432,0.197c0.186,0.063,0.416,0.128,0.699,0.196
			c0.309,0.077,0.586,0.166,0.824,0.261c0.24,0.097,0.439,0.212,0.598,0.351c0.156,0.137,0.277,0.297,0.359,0.48
			c0.081,0.183,0.123,0.396,0.123,0.638v0.017c0,0.275-0.053,0.523-0.156,0.742c-0.104,0.221-0.246,0.405-0.432,0.558
			c-0.182,0.151-0.404,0.267-0.662,0.346C36.855,36.54,36.57,36.581,36.261,36.581 M48.416,34.166l-2.346-3.578h1.224l1.653,2.616
			l1.672-2.616h1.189l-2.347,3.553v2.355h-1.046V34.166z M61.887,36.581c-0.455,0-0.892-0.079-1.309-0.233
			c-0.416-0.154-0.801-0.393-1.155-0.713l0.625-0.743c0.286,0.249,0.577,0.438,0.869,0.572c0.292,0.13,0.624,0.196,0.995,0.196
			c0.322,0,0.576-0.067,0.764-0.203c0.189-0.135,0.283-0.314,0.283-0.539V34.9c0-0.107-0.02-0.202-0.055-0.283
			c-0.037-0.081-0.104-0.158-0.202-0.231c-0.101-0.073-0.235-0.139-0.407-0.202c-0.174-0.061-0.396-0.124-0.672-0.187
			c-0.316-0.073-0.598-0.156-0.844-0.248c-0.244-0.093-0.451-0.206-0.617-0.339c-0.166-0.131-0.293-0.293-0.381-0.484
			c-0.086-0.191-0.131-0.422-0.131-0.691v-0.018c0-0.253,0.051-0.485,0.15-0.697c0.102-0.209,0.24-0.391,0.416-0.54
			c0.176-0.147,0.387-0.265,0.633-0.349c0.246-0.086,0.518-0.127,0.81-0.127c0.433,0,0.823,0.062,1.169,0.19
			c0.346,0.126,0.672,0.311,0.975,0.553l-0.557,0.784c-0.27-0.197-0.537-0.348-0.803-0.451c-0.264-0.104-0.531-0.156-0.801-0.156
			c-0.305,0-0.541,0.067-0.709,0.201c-0.168,0.136-0.254,0.302-0.254,0.499v0.017c0,0.113,0.02,0.213,0.06,0.299
			c0.04,0.088,0.11,0.167,0.216,0.237s0.248,0.137,0.432,0.197c0.185,0.063,0.417,0.128,0.699,0.196
			c0.309,0.077,0.586,0.166,0.824,0.261c0.238,0.097,0.438,0.212,0.596,0.351c0.158,0.137,0.279,0.297,0.361,0.48
			c0.081,0.183,0.121,0.396,0.121,0.638v0.017c0,0.275-0.053,0.523-0.154,0.742c-0.104,0.221-0.248,0.405-0.432,0.558
			c-0.184,0.151-0.406,0.267-0.663,0.346C62.48,36.54,62.197,36.581,61.887,36.581 M73.756,31.55h-1.875v-0.963h4.795v0.963h-1.873
			v4.945h-1.047V31.55z M84.863,30.587h4.373v0.938h-3.344v1.518h2.963v0.938h-2.963v1.578h3.385v0.938h-4.414V30.587z
			 M97.609,30.587h1.105l1.798,2.794l1.798-2.794h1.105v5.908h-1.029v-4.236l-1.865,2.783h-0.034l-1.849-2.767v4.22h-1.029V30.587z
			 M114.102,36.581c-0.455,0-0.891-0.079-1.308-0.233c-0.416-0.154-0.802-0.393-1.157-0.713l0.627-0.743
			c0.285,0.249,0.576,0.438,0.869,0.572c0.291,0.13,0.623,0.196,0.994,0.196c0.321,0,0.575-0.067,0.764-0.203
			c0.189-0.135,0.283-0.314,0.283-0.539V34.9c0-0.107-0.018-0.202-0.055-0.283s-0.104-0.158-0.203-0.231s-0.234-0.139-0.406-0.202
			c-0.173-0.061-0.396-0.124-0.672-0.187c-0.316-0.073-0.597-0.156-0.843-0.248c-0.245-0.093-0.452-0.206-0.617-0.339
			c-0.166-0.131-0.294-0.293-0.382-0.484c-0.086-0.191-0.131-0.422-0.131-0.691v-0.018c0-0.253,0.051-0.485,0.15-0.697
			c0.102-0.209,0.24-0.391,0.416-0.54c0.176-0.147,0.387-0.265,0.633-0.349c0.248-0.086,0.518-0.127,0.81-0.127
			c0.434,0,0.822,0.062,1.169,0.19c0.346,0.126,0.672,0.311,0.975,0.553l-0.557,0.784c-0.27-0.197-0.537-0.348-0.802-0.451
			s-0.532-0.156-0.802-0.156c-0.303,0-0.541,0.067-0.709,0.201c-0.17,0.136-0.254,0.302-0.254,0.499v0.017
			c0,0.113,0.02,0.213,0.061,0.299c0.039,0.088,0.109,0.167,0.215,0.237s0.249,0.137,0.432,0.197
			c0.184,0.063,0.416,0.128,0.699,0.196c0.309,0.077,0.585,0.166,0.824,0.261c0.238,0.097,0.438,0.212,0.596,0.351
			c0.158,0.137,0.279,0.297,0.361,0.48c0.08,0.183,0.121,0.396,0.121,0.638v0.017c0,0.275-0.051,0.523-0.154,0.742
			c-0.104,0.221-0.248,0.405-0.432,0.558c-0.184,0.151-0.406,0.267-0.662,0.346C114.695,36.54,114.412,36.581,114.102,36.581"/>
		<path fill-rule="evenodd" clip-rule="evenodd" fill="#FFFFFF" d="M3.484,32.865h24.002v1.354H3.484V32.865z M122.514,32.865
			h24.002v1.354h-24.002V32.865z"/>
	</g>
</g>
</svg>
